<svg id="visual" viewBox="0 0 960 540" width="960" height="540" xmlns="http://www.w3.org/2000/svg" xmlns:xlink="http://www.w3.org/1999/xlink" version="1.1"><rect x="0" y="0" width="960" height="540" fill="#F7770F"></rect><g transform="translate(478.9282022491641 248.9621211857088)"><path d="M192.5 -201.3C247.9 -183 290.1 -120.8 286 -62.5C281.9 -4.2 231.5 50.1 191.5 102.2C151.4 154.2 121.9 204 76.2 229.3C30.4 254.7 -31.5 255.6 -88.3 237.2C-145.1 218.9 -196.8 181.2 -234.4 129C-272.1 76.9 -295.6 10.3 -278.4 -42.4C-261.1 -95.2 -203.2 -134.2 -150 -152.9C-96.8 -171.7 -48.4 -170.2 10.1 -182.2C68.6 -194.2 137.1 -219.7 192.5 -201.3" fill="#b45a10"></path></g></svg>